<svg width="640" height="1024" xmlns="http://www.w3.org/2000/svg">

 <g>
  <title>background</title>
  <rect fill="none" id="canvas_background" height="402" width="582" y="-1" x="-1"/>
 </g>
 <g>
  <title>Layer 1</title>
  <path id="svg_3" d="m512,193c-70.625,0 -128,57.343994 -128,128c0,47.218994 25.875,88.062012 64,110.281006l0,17.718994c0,0 0,128 -128,128c-53.062012,0 -94.656006,11.375 -128,28.812012l0,-302.531006c38.156006,-22.218994 64,-63.062012 64,-110.280991c0,-70.656006 -57.343994,-128.000008 -128,-128.000008s-128,57.343987 -128,127.999992c0,47.218994 25.844002,88.062012 64,110.281006l0,419.468994c-38.155998,22.187988 -64,63 -64,110.25c0,70.625 57.344002,128 128,128s128,-57.375 128,-128c0,-33.5 -13.187988,-63.75 -34.25,-86.625c18.625,-22.875 48.906006,-41.375 98.25,-41.375c254,0 256,-256 256,-256l0,-17.718994c38.125,-22.218994 64,-63.062012 64,-110.281006c0,-70.656006 -57.375,-128 -128,-128zm-384,-64c35.406006,0 64,28.593994 64,64s-28.593994,64 -64,64s-64,-28.593994 -64,-64s28.594002,-64 64,-64zm0,768c-35.405998,0 -64,-28.625 -64,-64c0,-35.312012 28.594002,-64 64,-64s64,28.687988 64,64c0,35.375 -28.593994,64 -64,64zm384,-512c-35.375,0 -64,-28.593994 -64,-64s28.625,-64 64,-64s64,28.593994 64,64s-28.625,64 -64,64z"/>
  <path fill="#999999" id="svg_1" d="m512,193c-70.625,0 -128,57.343994 -128,128c0,47.218994 25.875,88.062012 64,110.281006l0,17.718994c0,0 0,128 -128,128c-53.062012,0 -94.656006,11.375 -128,28.812012c-29.333328,26.489685 -28.666672,28.979309 -50,49.468994c-37,37.489685 -49,45.979309 -78,67.468994c-38.156,22.187988 -64,63 -64,110.25c0,70.625 57.344002,128 128,128s128,-57.375 128,-128c0,-33.5 -13.188004,-63.75 -34.25,-86.625c18.625,-22.875 48.906006,-41.375 98.25,-41.375c254,0 256,-256 256,-256l0,-17.718994c38.125,-22.218994 64,-63.062012 64,-110.281006c0,-70.656006 -57.375,-128 -128,-128zm-384,704c-35.405998,0 -64,-28.625 -64,-64c0,-35.312012 28.594002,-64 64,-64s64,28.687988 64,64c0,35.375 -28.593994,64 -64,64zm384,-512c-35.375,0 -64,-28.593994 -64,-64s28.625,-64 64,-64s64,28.593994 64,64s-28.625,64 -64,64z"/>
 </g>
</svg>